<svg width="32" height="32" viewBox="0 0 32 32" fill="none" xmlns="http://www.w3.org/2000/svg">
<path d="M19.616 10.7431C23.5296 5.91883 17.522 6.57738 16.6501 6.14103C16.3437 5.98791 16.0422 4.50963 15.3604 4.85099C14.3104 5.37628 14.3996 8.11063 14.2857 9.02279C14.2238 9.51927 13.5306 10.2302 13.3028 10.7431C12.9391 11.5617 12.5395 12.5354 11.8714 13.5522C11.2034 14.569 9.80737 15.3573 9.10857 16.1345C6.13457 19.4401 7.40964 23.3263 10.6748 25.8394C13.9773 28.3811 27.7705 27.4325 23.8719 21.5815" stroke="black" stroke-opacity="0.9" stroke-width="1.28" stroke-linecap="round" stroke-linejoin="round"/>
<path d="M18.0722 12.9826C19.0414 16.5302 17.6501 20.2349 17.6501 23.7086C17.6501 24.1083 18.4434 23.7226 18.8321 23.794" stroke="black" stroke-opacity="0.9" stroke-width="1.28" stroke-linecap="round" stroke-linejoin="round"/>
<path d="M13.0134 16.7103C13.7936 16.8252 14.5056 17.3979 15.0578 17.9333C17.8066 20.5985 14.2951 22.3896 14.1006 23.3318C14.0567 23.5449 14.9629 23.6916 15.1449 23.7111" stroke="black" stroke-opacity="0.9" stroke-width="1.28" stroke-linecap="round" stroke-linejoin="round"/>
<path d="M16.9229 5.03953C17.4529 4.54237 17.554 5.41256 17.6501 5.89104" stroke="black" stroke-opacity="0.9" stroke-width="1.28" stroke-linecap="round" stroke-linejoin="round"/>
</svg>
