<svg width="224" height="28" viewBox="0 0 224 28" fill="none" xmlns="http://www.w3.org/2000/svg">
<path d="M0.146484 1.14258H2.7832V10.8457L13.1016 1.14258H16.5996L4.17188 12.7441L17.5664 27H14.1387L2.7832 14.9414V27H0.146484V1.14258ZM39.1805 1.14258L51.2391 27H48.4617L44.4012 18.4922H33.2566L29.2137 27H26.3309L38.5477 1.14258H39.1805ZM38.8641 6.62695L34.4168 15.9961H43.2586L38.8641 6.62695ZM62.4645 1.14258H65.066V24.5039H74.9977V27H62.4645V1.14258ZM96.8578 1.14258L108.916 27H106.139L102.079 18.4922H90.934L86.891 27H84.0082L96.225 1.14258H96.8578ZM96.5414 6.62695L92.0941 15.9961H100.936L96.5414 6.62695ZM117.47 22.1836L119.667 20.8652C121.214 23.7129 123.001 25.1367 125.029 25.1367C125.896 25.1367 126.71 24.9375 127.472 24.5391C128.234 24.1289 128.814 23.584 129.212 22.9043C129.611 22.2246 129.81 21.5039 129.81 20.7422C129.81 19.875 129.517 19.0254 128.931 18.1934C128.122 17.0449 126.646 15.6621 124.501 14.0449C122.345 12.416 121.003 11.2383 120.476 10.5117C119.562 9.29297 119.105 7.97461 119.105 6.55664C119.105 5.43164 119.374 4.40625 119.913 3.48047C120.452 2.55469 121.208 1.82812 122.181 1.30078C123.165 0.761719 124.232 0.492188 125.38 0.492188C126.599 0.492188 127.736 0.796875 128.79 1.40625C129.857 2.00391 130.982 3.11133 132.165 4.72852L130.056 6.32812C129.083 5.03906 128.251 4.18945 127.56 3.7793C126.88 3.36914 126.136 3.16406 125.327 3.16406C124.284 3.16406 123.429 3.48047 122.761 4.11328C122.105 4.74609 121.777 5.52539 121.777 6.45117C121.777 7.01367 121.894 7.55859 122.128 8.08594C122.363 8.61328 122.79 9.1875 123.411 9.80859C123.751 10.1367 124.864 10.998 126.751 12.3926C128.989 14.0449 130.525 15.5156 131.357 16.8047C132.189 18.0938 132.605 19.3887 132.605 20.6895C132.605 22.5645 131.89 24.1934 130.46 25.5762C129.042 26.959 127.314 27.6504 125.275 27.6504C123.704 27.6504 122.28 27.2344 121.003 26.4023C119.726 25.5586 118.548 24.1523 117.47 22.1836ZM145.236 1.14258H147.838V11.9883H160.986V1.14258H163.588V27H160.986V14.5195H147.838V27H145.236V1.14258ZM176.712 1.14258H179.296V27H176.712V1.14258ZM192.437 1.14258H195.074V10.8457L205.392 1.14258H208.89L196.462 12.7441L209.857 27H206.429L195.074 14.9414V27H192.437V1.14258ZM220.538 1.14258H223.121V27H220.538V1.14258Z" fill="black"/>
</svg>
