<svg width="222" height="222" viewBox="0 0 222 222" fill="none" xmlns="http://www.w3.org/2000/svg">
<path d="M58.1866 80.8962C46.8321 57.2982 63.2565 52.1108 76.6243 70.3568" stroke="black" stroke-opacity="0.9" stroke-width="8.88" stroke-linecap="round" stroke-linejoin="round"/>
<path d="M154.54 69.7469C172.06 47.6916 175.634 68.5342 170.032 86.777" stroke="black" stroke-opacity="0.9" stroke-width="8.88" stroke-linecap="round" stroke-linejoin="round"/>
<path d="M96.6528 83.1878C96.836 80.3135 97.0208 77.4453 97.2039 74.5776" stroke="black" stroke-opacity="0.9" stroke-width="8.88" stroke-linecap="round" stroke-linejoin="round"/>
<path d="M115.765 86.7709C115.567 81.2631 116.234 75.7448 116.869 70.2791" stroke="black" stroke-opacity="0.9" stroke-width="8.88" stroke-linecap="round" stroke-linejoin="round"/>
<path d="M133.954 83.1856C134.905 80.4217 134.322 77.4475 134.507 74.5798" stroke="black" stroke-opacity="0.9" stroke-width="8.88" stroke-linecap="round" stroke-linejoin="round"/>
<path d="M91.0848 110.336C113.816 110.022 109.236 116.635 89.8333 123.948" stroke="black" stroke-opacity="0.9" stroke-width="8.88" stroke-linecap="round" stroke-linejoin="round"/>
<path d="M132.003 109.716C113.005 118.053 116.853 114.56 131.367 124.057" stroke="black" stroke-opacity="0.9" stroke-width="8.88" stroke-linecap="round" stroke-linejoin="round"/>
<path d="M109.272 141.266C99.87 141.787 108.518 151.885 116.658 141.884" stroke="black" stroke-opacity="0.9" stroke-width="8.88" stroke-linecap="round" stroke-linejoin="round"/>
<path d="M107.331 159.086C100.914 161.881 97.6199 160.675 92.9829 157.041" stroke="black" stroke-opacity="0.9" stroke-width="8.88" stroke-linecap="round" stroke-linejoin="round"/>
<path d="M109.484 157.041C114.562 165.073 122.62 162.245 128.855 157.041" stroke="black" stroke-opacity="0.9" stroke-width="8.88" stroke-linecap="round" stroke-linejoin="round"/>
<path d="M60.6981 128.359C53.7155 128.272 42.2646 126.1 37.74 125.491" stroke="black" stroke-opacity="0.9" stroke-width="8.88" stroke-linecap="round" stroke-linejoin="round"/>
<path d="M62.1324 142.553C53.3183 142.972 45.5731 144.929 38.457 148.286" stroke="black" stroke-opacity="0.9" stroke-width="8.88" stroke-linecap="round" stroke-linejoin="round"/>
<path d="M184.815 118.894C175.471 119.897 167.723 122.214 160.422 126.932" stroke="black" stroke-opacity="0.9" stroke-width="8.88" stroke-linecap="round" stroke-linejoin="round"/>
<path d="M184.24 145.659C176.693 143.676 169.097 143.508 161.282 143.508" stroke="black" stroke-opacity="0.9" stroke-width="8.88" stroke-linecap="round" stroke-linejoin="round"/>
</svg>
