<svg width="222" height="222" viewBox="0 0 222 222" fill="none" xmlns="http://www.w3.org/2000/svg">
<path d="M58.0606 91.575C34.682 75.767 53.9496 51.105 69.3754 76.2903" stroke="black" stroke-opacity="0.9" stroke-width="8.88" stroke-linecap="round" stroke-linejoin="round"/>
<path d="M143.745 74.2579C155.237 55.7925 182.474 58.2145 165.531 83.25" stroke="black" stroke-opacity="0.9" stroke-width="8.88" stroke-linecap="round" stroke-linejoin="round"/>
<path d="M89.4397 88.245C89.0007 85.5255 90.3788 82.897 91.0198 80.475" stroke="black" stroke-opacity="0.9" stroke-width="8.88" stroke-linecap="round" stroke-linejoin="round"/>
<path d="M107.67 91.575C107.897 86.9219 108.196 82.2571 108.78 77.7" stroke="black" stroke-opacity="0.9" stroke-width="8.88" stroke-linecap="round" stroke-linejoin="round"/>
<path d="M126.54 88.245C126.54 85.8369 126.54 83.4326 126.54 81.03" stroke="black" stroke-opacity="0.9" stroke-width="8.88" stroke-linecap="round" stroke-linejoin="round"/>
<path d="M84.915 123.765C89.0626 122.608 93.4543 122.113 97.68 121.545" stroke="black" stroke-opacity="0.9" stroke-width="8.88" stroke-linecap="round" stroke-linejoin="round"/>
<path d="M124.875 121.545C129.257 120.671 133.356 120.952 137.64 121.545" stroke="black" stroke-opacity="0.9" stroke-width="8.88" stroke-linecap="round" stroke-linejoin="round"/>
<path d="M104.34 142.083C122.932 132.502 120.622 146.854 106.271 144.614" stroke="black" stroke-opacity="0.9" stroke-width="8.88" stroke-linecap="round" stroke-linejoin="round"/>
<path d="M111.555 148.185C110.475 160.01 100.995 161.047 92.6851 157.472" stroke="black" stroke-opacity="0.9" stroke-width="8.88" stroke-linecap="round" stroke-linejoin="round"/>
<path d="M111.023 148.185C110.369 163.891 124.087 161.508 131.535 153.961" stroke="black" stroke-opacity="0.9" stroke-width="8.88" stroke-linecap="round" stroke-linejoin="round"/>
<path d="M61.6049 134.865C53.461 132.217 44.8504 132.071 36.6299 130.98" stroke="black" stroke-opacity="0.9" stroke-width="8.88" stroke-linecap="round" stroke-linejoin="round"/>
<path d="M64.3802 148.185C55.4267 150.298 46.4778 151.932 37.7402 154.845" stroke="black" stroke-opacity="0.9" stroke-width="8.88" stroke-linecap="round" stroke-linejoin="round"/>
<path d="M162.615 129.315C168.998 127.628 175.207 125.219 181.485 123.21" stroke="black" stroke-opacity="0.9" stroke-width="8.88" stroke-linecap="round" stroke-linejoin="round"/>
<path d="M164.835 144.855C171.416 144.021 178.787 144.315 184.815 144.538" stroke="black" stroke-opacity="0.9" stroke-width="8.88" stroke-linecap="round" stroke-linejoin="round"/>
</svg>
