<svg width="222" height="222" viewBox="0 0 222 222" fill="none" xmlns="http://www.w3.org/2000/svg">
<path d="M92.0605 126.105C107.356 124.094 123.784 124.338 137.978 126.632" stroke="black" stroke-opacity="0.9" stroke-width="8.88" stroke-linecap="round" stroke-linejoin="round"/>
<path d="M102.203 132.757C103.399 130.669 102.143 128.863 101.86 126.924" stroke="black" stroke-opacity="0.9" stroke-width="8.88" stroke-linecap="round" stroke-linejoin="round"/>
<path d="M125.803 132.063C125.803 130.304 125.803 128.544 125.803 126.788" stroke="black" stroke-opacity="0.9" stroke-width="8.88" stroke-linecap="round" stroke-linejoin="round"/>
<path d="M92.6028 94.2146C93.2544 91.0372 92.2692 87.2332 91.9956 84.5115" stroke="black" stroke-opacity="0.9" stroke-width="8.88" stroke-linecap="round" stroke-linejoin="round"/>
<path d="M112.617 98.4048C112.713 91.757 112.617 85.0488 112.617 78.3632" stroke="black" stroke-opacity="0.9" stroke-width="8.88" stroke-linecap="round" stroke-linejoin="round"/>
<path d="M130.675 91.4418C130.471 87.7427 130.373 84.062 130.373 80.3529" stroke="black" stroke-opacity="0.9" stroke-width="8.88" stroke-linecap="round" stroke-linejoin="round"/>
<path d="M50.7309 85.2402C23.3774 60.8585 58.0293 59.9711 72.3982 82.4164" stroke="black" stroke-opacity="0.9" stroke-width="8.88" stroke-linecap="round" stroke-linejoin="round"/>
<path d="M152.509 77.4569C162.752 47.2044 187.717 59.955 167.439 86.8015" stroke="black" stroke-opacity="0.9" stroke-width="8.88" stroke-linecap="round" stroke-linejoin="round"/>
<path d="M114.596 146.271C125.769 142.78 121.036 155.692 113.389 145.679" stroke="black" stroke-opacity="0.9" stroke-width="8.88" stroke-linecap="round" stroke-linejoin="round"/>
<path d="M116.759 153.696C112.659 159.362 110.275 160.134 106.663 161.505" stroke="black" stroke-opacity="0.9" stroke-width="8.88" stroke-linecap="round" stroke-linejoin="round"/>
<path d="M119.054 155.268C120.857 159.351 123.817 159.091 126.707 160.119" stroke="black" stroke-opacity="0.9" stroke-width="8.88" stroke-linecap="round" stroke-linejoin="round"/>
<path d="M66.3193 135.105C58.2213 134.215 47.5795 133.868 40.5781 133.026" stroke="black" stroke-opacity="0.9" stroke-width="8.88" stroke-linecap="round" stroke-linejoin="round"/>
<path d="M66.893 150.62C59.6874 153.131 52.5843 155.912 45.3257 158.244" stroke="black" stroke-opacity="0.9" stroke-width="8.88" stroke-linecap="round" stroke-linejoin="round"/>
<path d="M180.033 126.832C172.758 128.562 165.887 131.858 159.162 135.149" stroke="black" stroke-opacity="0.9" stroke-width="8.88" stroke-linecap="round" stroke-linejoin="round"/>
<path d="M182.04 149.743C175.402 149.23 168.616 148.905 159.162 149.521" stroke="black" stroke-opacity="0.9" stroke-width="8.88" stroke-linecap="round" stroke-linejoin="round"/>
</svg>
