<svg width="708" height="513" viewBox="0 0 708 513" fill="none" xmlns="http://www.w3.org/2000/svg">
<path d="M65.5256 91.0993C52.7391 64.525 71.235 58.6833 86.2887 79.2306" stroke="black" stroke-opacity="0.9" stroke-width="10" stroke-linecap="round" stroke-linejoin="round"/>
<path d="M174.031 78.5438C193.761 53.7068 197.786 77.1781 191.478 97.7219" stroke="black" stroke-opacity="0.9" stroke-width="10" stroke-linecap="round" stroke-linejoin="round"/>
<path d="M108.843 93.68C109.05 90.4431 109.258 87.2131 109.464 83.9838" stroke="black" stroke-opacity="0.9" stroke-width="10" stroke-linecap="round" stroke-linejoin="round"/>
<path d="M130.366 97.715C130.143 91.5125 130.894 85.2981 131.609 79.1431" stroke="black" stroke-opacity="0.9" stroke-width="10" stroke-linecap="round" stroke-linejoin="round"/>
<path d="M150.849 93.6775C151.92 90.565 151.263 87.2156 151.472 83.9863" stroke="black" stroke-opacity="0.9" stroke-width="10" stroke-linecap="round" stroke-linejoin="round"/>
<path d="M102.573 124.252C128.171 123.899 123.014 131.346 101.164 139.581" stroke="black" stroke-opacity="0.9" stroke-width="10" stroke-linecap="round" stroke-linejoin="round"/>
<path d="M148.652 123.554C127.259 132.943 131.591 129.009 147.936 139.704" stroke="black" stroke-opacity="0.9" stroke-width="10" stroke-linecap="round" stroke-linejoin="round"/>
<path d="M123.054 159.083C112.466 159.67 122.205 171.042 131.372 159.779" stroke="black" stroke-opacity="0.9" stroke-width="10" stroke-linecap="round" stroke-linejoin="round"/>
<path d="M120.869 179.151C113.642 182.299 109.932 180.941 104.71 176.847" stroke="black" stroke-opacity="0.9" stroke-width="10" stroke-linecap="round" stroke-linejoin="round"/>
<path d="M123.292 176.847C129.011 185.892 138.085 182.709 145.107 176.847" stroke="black" stroke-opacity="0.9" stroke-width="10" stroke-linecap="round" stroke-linejoin="round"/>
<path d="M68.3537 144.549C60.4904 144.451 47.5952 142.004 42.5 141.319" stroke="black" stroke-opacity="0.9" stroke-width="10" stroke-linecap="round" stroke-linejoin="round"/>
<path d="M69.969 160.532C60.0433 161.005 51.3212 163.209 43.3076 166.989" stroke="black" stroke-opacity="0.9" stroke-width="10" stroke-linecap="round" stroke-linejoin="round"/>
<path d="M208.125 133.889C197.603 135.019 188.877 137.628 180.655 142.942" stroke="black" stroke-opacity="0.9" stroke-width="10" stroke-linecap="round" stroke-linejoin="round"/>
<path d="M207.478 164.03C198.979 161.797 190.425 161.608 181.624 161.608" stroke="black" stroke-opacity="0.9" stroke-width="10" stroke-linecap="round" stroke-linejoin="round"/>
<path d="M561.672 405.01C578.896 402.745 597.396 403.021 613.381 405.604" stroke="black" stroke-opacity="0.9" stroke-width="10" stroke-linecap="round" stroke-linejoin="round"/>
<path d="M573.093 412.501C574.441 410.15 573.026 408.116 572.708 405.932" stroke="black" stroke-opacity="0.9" stroke-width="10" stroke-linecap="round" stroke-linejoin="round"/>
<path d="M599.67 411.72C599.67 409.739 599.67 407.757 599.67 405.779" stroke="black" stroke-opacity="0.9" stroke-width="10" stroke-linecap="round" stroke-linejoin="round"/>
<path d="M562.282 369.097C563.016 365.519 561.907 361.236 561.599 358.171" stroke="black" stroke-opacity="0.9" stroke-width="10" stroke-linecap="round" stroke-linejoin="round"/>
<path d="M584.821 373.816C584.93 366.33 584.821 358.776 584.821 351.247" stroke="black" stroke-opacity="0.9" stroke-width="10" stroke-linecap="round" stroke-linejoin="round"/>
<path d="M605.157 365.975C604.927 361.809 604.816 357.664 604.816 353.487" stroke="black" stroke-opacity="0.9" stroke-width="10" stroke-linecap="round" stroke-linejoin="round"/>
<path d="M515.129 358.991C484.326 331.534 523.348 330.535 539.529 355.811" stroke="black" stroke-opacity="0.9" stroke-width="10" stroke-linecap="round" stroke-linejoin="round"/>
<path d="M629.744 350.226C641.279 316.158 669.394 330.517 646.558 360.749" stroke="black" stroke-opacity="0.9" stroke-width="10" stroke-linecap="round" stroke-linejoin="round"/>
<path d="M587.049 427.719C599.632 423.789 594.302 438.329 585.69 427.053" stroke="black" stroke-opacity="0.9" stroke-width="10" stroke-linecap="round" stroke-linejoin="round"/>
<path d="M589.486 436.081C584.869 442.461 582.183 443.331 578.116 444.875" stroke="black" stroke-opacity="0.9" stroke-width="10" stroke-linecap="round" stroke-linejoin="round"/>
<path d="M592.069 437.851C594.1 442.449 597.433 442.157 600.687 443.314" stroke="black" stroke-opacity="0.9" stroke-width="10" stroke-linecap="round" stroke-linejoin="round"/>
<path d="M532.684 415.145C523.565 414.143 511.581 413.752 503.696 412.804" stroke="black" stroke-opacity="0.9" stroke-width="10" stroke-linecap="round" stroke-linejoin="round"/>
<path d="M533.33 432.617C525.216 435.445 517.217 438.576 509.042 441.202" stroke="black" stroke-opacity="0.9" stroke-width="10" stroke-linecap="round" stroke-linejoin="round"/>
<path d="M660.74 405.829C652.547 407.777 644.809 411.489 637.236 415.194" stroke="black" stroke-opacity="0.9" stroke-width="10" stroke-linecap="round" stroke-linejoin="round"/>
<path d="M663 431.629C655.524 431.052 647.883 430.686 637.236 431.379" stroke="black" stroke-opacity="0.9" stroke-width="10" stroke-linecap="round" stroke-linejoin="round"/>
<path d="M291.383 220.125C265.056 202.323 286.754 174.551 304.125 202.913" stroke="black" stroke-opacity="0.9" stroke-width="10" stroke-linecap="round" stroke-linejoin="round"/>
<path d="M387.875 200.624C400.816 179.829 431.488 182.557 412.408 210.75" stroke="black" stroke-opacity="0.9" stroke-width="10" stroke-linecap="round" stroke-linejoin="round"/>
<path d="M326.72 216.375C326.226 213.312 327.778 210.352 328.5 207.625" stroke="black" stroke-opacity="0.9" stroke-width="10" stroke-linecap="round" stroke-linejoin="round"/>
<path d="M347.25 220.125C347.506 214.885 347.842 209.632 348.5 204.5" stroke="black" stroke-opacity="0.9" stroke-width="10" stroke-linecap="round" stroke-linejoin="round"/>
<path d="M368.5 216.375C368.5 213.663 368.5 210.956 368.5 208.25" stroke="black" stroke-opacity="0.9" stroke-width="10" stroke-linecap="round" stroke-linejoin="round"/>
<path d="M321.625 256.375C326.296 255.072 331.241 254.514 336 253.875" stroke="black" stroke-opacity="0.9" stroke-width="10" stroke-linecap="round" stroke-linejoin="round"/>
<path d="M366.625 253.875C371.559 252.891 376.176 253.207 381 253.875" stroke="black" stroke-opacity="0.9" stroke-width="10" stroke-linecap="round" stroke-linejoin="round"/>
<path d="M343.5 277.003C364.438 266.214 361.836 282.376 345.674 279.853" stroke="black" stroke-opacity="0.9" stroke-width="10" stroke-linecap="round" stroke-linejoin="round"/>
<path d="M351.625 283.875C350.409 297.191 339.733 298.359 330.375 294.334" stroke="black" stroke-opacity="0.9" stroke-width="10" stroke-linecap="round" stroke-linejoin="round"/>
<path d="M351.025 283.875C350.29 301.562 365.738 298.879 374.125 290.379" stroke="black" stroke-opacity="0.9" stroke-width="10" stroke-linecap="round" stroke-linejoin="round"/>
<path d="M295.375 268.875C286.204 265.893 276.507 265.728 267.25 264.5" stroke="black" stroke-opacity="0.9" stroke-width="10" stroke-linecap="round" stroke-linejoin="round"/>
<path d="M298.5 283.875C288.417 286.255 278.34 288.095 268.5 291.375" stroke="black" stroke-opacity="0.9" stroke-width="10" stroke-linecap="round" stroke-linejoin="round"/>
<path d="M409.125 262.625C416.313 260.725 423.305 258.012 430.375 255.75" stroke="black" stroke-opacity="0.9" stroke-width="10" stroke-linecap="round" stroke-linejoin="round"/>
<path d="M411.625 280.125C419.036 279.186 427.336 279.517 434.125 279.768" stroke="black" stroke-opacity="0.9" stroke-width="10" stroke-linecap="round" stroke-linejoin="round"/>
</svg>
